<?xml version="1.0" encoding="UTF-8" standalone="no"?>
<svg width="880px" height="1167px" viewBox="0 0 880 1167" version="1.1" xmlns="http://www.w3.org/2000/svg" xmlns:xlink="http://www.w3.org/1999/xlink" xmlns:sketch="http://www.bohemiancoding.com/sketch/ns">
    <!-- Generator: Sketch 3.1.1 (8761) - http://www.bohemiancoding.com/sketch -->
    <title>Groupsmallnoshadow</title>
    <desc>Created with Sketch.</desc>
    <defs>
        <filter x="-50%" y="-50%" width="200%" height="200%" filterUnits="objectBoundingBox" id="filter-1">
            <feOffset dx="-8" dy="0" in="SourceAlpha" result="shadowOffsetOuter1"></feOffset>
            <feGaussianBlur stdDeviation="2" in="shadowOffsetOuter1" result="shadowBlurOuter1"></feGaussianBlur>
            <feColorMatrix values="0 0 0 0 0   0 0 0 0 0   0 0 0 0 0  0 0 0 0.35 0" in="shadowBlurOuter1" type="matrix" result="shadowMatrixOuter1"></feColorMatrix>
            <feMerge>
                <feMergeNode in="shadowMatrixOuter1"></feMergeNode>
                <feMergeNode in="SourceGraphic"></feMergeNode>
            </feMerge>
        </filter>
        <filter x="-50%" y="-50%" width="200%" height="200%" filterUnits="objectBoundingBox" id="filter-2">
            <feOffset dx="9" dy="2" in="SourceAlpha" result="shadowOffsetOuter1"></feOffset>
            <feGaussianBlur stdDeviation="2" in="shadowOffsetOuter1" result="shadowBlurOuter1"></feGaussianBlur>
            <feColorMatrix values="0 0 0 0 0   0 0 0 0 0   0 0 0 0 0  0 0 0 0.35 0" in="shadowBlurOuter1" type="matrix" result="shadowMatrixOuter1"></feColorMatrix>
            <feMerge>
                <feMergeNode in="shadowMatrixOuter1"></feMergeNode>
                <feMergeNode in="SourceGraphic"></feMergeNode>
            </feMerge>
        </filter>
        <radialGradient cx="53.1032383%" cy="62.040956%" fx="53.1032383%" fy="62.040956%" r="69.1774457%" id="radialGradient-3">
            <stop stop-color="#F04B4B" offset="0%"></stop>
            <stop stop-color="#C00104" offset="100%"></stop>
        </radialGradient>
    </defs>
    <g id="Page-1" stroke="none" stroke-width="1" fill="none" fill-rule="evenodd" sketch:type="MSPage">
        <g id="Group" sketch:type="MSLayerGroup" transform="translate(4.000000, 3.000000)">
            <path d="M842.359097,907.690969 C842.359097,907.690969 845.564059,927.124381 831.357742,931.122018 C817.663382,939.717749 439.061099,1157.36586 439.061099,1157.36586 C439.061099,1157.36586 430.790813,1164.51802 414.519542,1153.76028 C398.248271,1143.00254 54.246823,932.028886 54.246823,932.028886 C54.246823,932.028886 46.95858,932.296285 46.9585801,899.44828 C46.9585802,866.600275 19.3206606,482.431249 19.3206606,482.431249" id="Path-5051" stroke-opacity="0.419582201" stroke="#FFFFFF" stroke-width="7.5" sketch:type="MSShapeGroup"></path>
            <path d="M842.359097,907.690969 C842.359097,907.690969 845.564059,927.124381 831.357742,931.122018 C817.663382,939.717749 439.061099,1157.36586 439.061099,1157.36586 C439.061099,1157.36586 430.790813,1164.51802 414.519542,1153.76028 C398.248271,1143.00254 54.246823,932.028886 54.246823,932.028886 C54.246823,932.028886 46.95858,932.296285 46.9585801,899.44828 C46.9585802,866.600275 19.3206606,482.431249 19.3206606,482.431249 L848.203961,586.590862 L842.359097,907.690969 Z" id="Path-5052" stroke-opacity="0.419582201" stroke="#FFFFFF" stroke-width="2.5" fill="#002560" sketch:type="MSShapeGroup"></path>
            <path d="M424.636721,685.236823 C424.636721,685.236823 426.440231,687.490943 426.440231,696.581733 C426.44023,705.672522 426.288362,795.345105 426.288362,795.345105 C426.288362,795.345105 425.391044,800.266002 423.754757,800.266004" id="Path-5054" stroke-opacity="0.419582201" stroke="#000000" stroke-width="2.5" sketch:type="MSShapeGroup"></path>
            <path d="M848.468731,573.493768 L843.5,907.500001" id="Path-5057" stroke-opacity="0.419582201" stroke="#FFFFFF" stroke-width="5.5" sketch:type="MSShapeGroup"></path>
            <path d="M3.01766397,566.237086 C3.01766397,566.237086 3.79041152,574.262159 12.0144892,577.784236 C20.2385669,581.306312 416.41462,801.125779 416.41462,801.125779 C416.41462,801.125779 424.100237,805.48284 435.783453,798.77928 C447.466669,792.075721 869.727104,575.45781 869.727104,575.45781 C869.727104,575.45781 871.963161,574.581538 871.96316,562.913654 C871.96316,551.245769 872.196627,469.236885 872.196627,469.236885 C872.196627,469.236885 866.047517,464.227742 857.534086,461.072281 C849.020655,457.91682 447.588388,273.96694 447.588388,273.96694 C447.588388,273.96694 437.70039,276.918666 415.207599,287.712689 C392.714808,298.506712 4.98524897,462.186296 4.98524897,462.186296 C4.98524897,462.186296 0.0548631827,460.274511 0.0548632055,486.11376 C0.0548632282,511.953009 3.01766397,566.237086 3.01766397,566.237086 Z" id="Path-5052" stroke-opacity="0.419582201" stroke="#FFFFFF" stroke-width="7.5" fill="#002560" sketch:type="MSShapeGroup"></path>
            <path d="M6.60134645,469.421267 L419.271302,680.570357 C419.271302,680.570357 423.143997,685.418331 449.583685,671.940444 C476.023374,658.462557 867.856108,469.149 867.856108,469.149" id="Path-5053" stroke-opacity="0.419582201" stroke="#FFFFFF" stroke-width="2.5" sketch:type="MSShapeGroup"></path>
            <path d="M158.332023,397.125716 C158.332023,397.125716 161.345884,390.099312 169.223516,392.537408 C177.101148,394.975503 588.435511,595.575194 588.435511,595.575194 C588.435511,595.575194 595.218196,598.017219 595.218194,617.966672 C595.218192,637.916125 590.306484,1067.87056 590.306484,1067.87056 C590.306484,1067.87056 592.129582,1074.69139 584.315916,1074.69139 C598.977042,1071.40251 719.471641,1000.08486 719.471641,1000.08486 C719.471641,1000.08486 721.728687,999.254071 720.600179,981.953964 C719.471671,964.653857 734.228144,542.762588 734.228144,542.762588 C734.228144,542.762588 736.988511,525.780275 716.995014,519.729937 C697.001517,513.679598 303.640052,334.013182 303.640052,334.013182 C303.640052,334.013182 291.461988,333.893109 284.609831,337.276496 C277.757674,340.659884 158.332023,397.125716 158.332023,397.125716 Z" id="Path-5055" stroke="#F6A623" stroke-width="3.5" fill="#00ADF0" filter="url(#filter-1)" sketch:type="MSShapeGroup"></path>
            <path d="M663.371463,1023.53264 L668.095575,603.117418 C668.095575,603.117418 671.734827,565.727556 647.811243,555.198762 C623.887659,544.669969 242.135614,363.280061 242.135614,363.280061" id="Path-5059" stroke="#FFFFFF" stroke-width="5" stroke-dasharray="44" sketch:type="MSShapeGroup"></path>
            <path d="M550.729069,355.103677 L588.70155,334.457874 C588.70155,334.457874 591.771079,332.012833 610.481417,341.545022 C629.191754,351.077211 713.835749,388.480135 713.835749,388.480135 C713.835749,388.480135 718.871598,391.492076 718.607905,395.162298 C718.607899,395.572952 718.893682,397.945804 718.893682,397.945804 L281.932205,606.789216 C281.932205,606.789216 279.010507,606.190331 279.010507,616.442329 C279.010507,626.694328 290.783845,1075.16834 290.783845,1075.16834 C290.783845,1075.16834 291.347258,1082.22065 286.639731,1079.82066 C281.932205,1077.42068 165.657028,1005.46297 165.657028,1005.46297 C165.657028,1005.46297 161.689479,1005.64891 161.689479,992.12726 C161.689479,978.605613 145.775956,544.192506 145.775956,544.192506 C145.775956,544.192506 145.098528,531.095293 164.993734,524.454739 C184.88894,517.814186 550.729069,355.103677 550.729069,355.103677 Z" id="Path-5056" stroke="#F6A623" stroke-width="3.5" fill="#00ADF0" filter="url(#filter-2)" sketch:type="MSShapeGroup"></path>
            <path d="M219.108379,1036.74037 L203.891111,576.302413 C203.891111,576.302413 198.81619,559.44095 228.258295,546.690871 C257.700399,533.940792 644.87409,362.907481 644.87409,362.907481" id="Path-5058" stroke="#FFFFFF" stroke-width="5" stroke-dasharray="44" sketch:type="MSShapeGroup"></path>
            <g transform="translate(288.000000, 0.000000)" sketch:type="MSShapeGroup">
                <path d="M303.365239,166.464911 C303.785333,161.846269 304,157.168077 304,152.439601 C304,68.2495343 235.947282,0 152,0 C68.052718,0 0,68.2495343 0,152.439601 C0,165.248818 1.57532031,177.689034 4.54226172,189.57602 C8.12347221,207.394093 14.7092266,228.263334 26.8121853,245.851451 C54.2065165,285.661114 150.976643,467.456819 150.976643,467.456819 C150.976643,467.456819 151.816097,470.68049 153.144525,466.999554 C154.472953,463.318617 250.198061,287.168401 263.711916,272.18779 C277.225771,257.207179 298.600547,217.946712 303.541298,166.474811 L303.365239,166.464911 L303.365239,166.464911 Z M152,226.031133 C189.309903,226.031133 219.555556,195.698007 219.555556,158.280199 C219.555556,120.862392 189.309903,90.5292653 152,90.5292653 C114.690097,90.5292653 84.4444444,120.862392 84.4444444,158.280199 C84.4444444,195.698007 114.690097,226.031133 152,226.031133 Z" id="Oval-191" stroke="#000000" stroke-width="4.5" fill="url(#radialGradient-3)"></path>
                <path d="M150.3632,228.180372 C104.62823,228.180372 86.520339,182.899808 86.520339,182.899808 C86.520339,182.899808 100.045526,236.780626 152.450904,236.780626 C204.856282,236.780626 226.64125,182.899808 226.64125,182.899808 C226.64125,182.899808 196.09817,228.180372 150.3632,228.180372 Z" id="Path-5060" fill="#FF0101"></path>
                <path d="M85.7574938,178.16665 C85.7574938,178.16665 100.045524,236.849662 152.450902,236.849662 C204.85628,236.849662 225.940309,186.45393 225.940309,186.45393" id="Path-5061" stroke="#000000" stroke-width="1.5"></path>
                <path d="M7.29218829,117.944624 C7.29218829,117.944624 45.4721492,18.4614523 153.162,18.4614523 C260.851851,18.4614523 281.167585,127.250723 281.167585,127.250723" id="Path-5063" stroke="#000000" stroke-width="1.5"></path>
            </g>
            <path d="M424.5,807.5 L429.5,1148.5" id="Path-5233" stroke-opacity="0.419582188" stroke="#FFFFFF" opacity="0.834130131" sketch:type="MSShapeGroup"></path>
            <path d="M421.846312,796.60335 L421.846312,688.424804" id="Path-5234" stroke-opacity="0.419582188" stroke="#FFFFFF" sketch:type="MSShapeGroup"></path>
            <path d="M427.587416,691.435626 L427.587416,787.615274" id="Path-5235" stroke-opacity="0.419582188" stroke="#FFFFFF" sketch:type="MSShapeGroup"></path>
        </g>
    </g>
</svg>